<?xml version="1.0" encoding="UTF-8" standalone="no"?><svg xmlns="http://www.w3.org/2000/svg" xmlns:xlink="http://www.w3.org/1999/xlink" contentScriptType="application/ecmascript" contentStyleType="text/css" height="2072px" preserveAspectRatio="none" style="width:2025px;height:2072px;" version="1.1" viewBox="0 0 2025 2072" width="2025px" zoomAndPan="magnify"><defs><filter height="300%" id="f1n6f8j3040bom" width="300%" x="-1" y="-1"><feGaussianBlur result="blurOut" stdDeviation="2.0"/><feColorMatrix in="blurOut" result="blurOut2" type="matrix" values="0 0 0 0 0 0 0 0 0 0 0 0 0 0 0 0 0 0 .4 0"/><feOffset dx="4.0" dy="4.0" in="blurOut2" result="blurOut3"/><feBlend in="SourceGraphic" in2="blurOut3" mode="normal"/></filter></defs><g><!--cluster DroneControl--><polygon fill="#FFFFFF" filter="url(#f1n6f8j3040bom)" points="14,16,117,16,124,38.4883,2003,38.4883,2003,2060,14,2060,14,16" style="stroke: #000000; stroke-width: 1.5;"/><line style="stroke: #000000; stroke-width: 1.5;" x1="14" x2="124" y1="38.4883" y2="38.4883"/><text fill="#000000" font-family="sans-serif" font-size="14" font-weight="bold" lengthAdjust="spacingAndGlyphs" textLength="97" x="18" y="31.5352">DroneControl</text><!--cluster utility--><polygon fill="#FFFFFF" filter="url(#f1n6f8j3040bom)" points="22,507.5,72,507.5,79,529.9883,728,529.9883,728,2052,22,2052,22,507.5" style="stroke: #000000; stroke-width: 1.5;"/><line style="stroke: #000000; stroke-width: 1.5;" x1="22" x2="79" y1="529.9883" y2="529.9883"/><text fill="#000000" font-family="sans-serif" font-size="14" font-weight="bold" lengthAdjust="spacingAndGlyphs" textLength="44" x="26" y="523.0352">utility</text><!--cluster Task--><polygon fill="#FFFFFF" filter="url(#f1n6f8j3040bom)" points="384,534.5,425,534.5,432,556.9883,720,556.9883,720,2044,384,2044,384,534.5" style="stroke: #000000; stroke-width: 1.5;"/><line style="stroke: #000000; stroke-width: 1.5;" x1="384" x2="432" y1="556.9883" y2="556.9883"/><text fill="#000000" font-family="sans-serif" font-size="14" font-weight="bold" lengthAdjust="spacingAndGlyphs" textLength="35" x="388" y="550.0352">Task</text><!--cluster Systems--><polygon fill="#FFFFFF" filter="url(#f1n6f8j3040bom)" points="1547,101.5,1613,101.5,1620,123.9883,1827,123.9883,1827,249.5,1547,249.5,1547,101.5" style="stroke: #000000; stroke-width: 1.5;"/><line style="stroke: #000000; stroke-width: 1.5;" x1="1547" x2="1620" y1="123.9883" y2="123.9883"/><text fill="#000000" font-family="sans-serif" font-size="14" font-weight="bold" lengthAdjust="spacingAndGlyphs" textLength="60" x="1551" y="117.0352">Systems</text><!--cluster Camera--><polygon fill="#FFFFFF" filter="url(#f1n6f8j3040bom)" points="739,498,799,498,806,520.4883,1170,520.4883,1170,719,739,719,739,498" style="stroke: #000000; stroke-width: 1.5;"/><line style="stroke: #000000; stroke-width: 1.5;" x1="739" x2="806" y1="520.4883" y2="520.4883"/><text fill="#000000" font-family="sans-serif" font-size="14" font-weight="bold" lengthAdjust="spacingAndGlyphs" textLength="54" x="743" y="513.5352">Camera</text><!--cluster Gyro--><polygon fill="#FFFFFF" filter="url(#f1n6f8j3040bom)" points="1189,498,1228,498,1235,520.4883,1543,520.4883,1543,719,1189,719,1189,498" style="stroke: #000000; stroke-width: 1.5;"/><line style="stroke: #000000; stroke-width: 1.5;" x1="1189" x2="1235" y1="520.4883" y2="520.4883"/><text fill="#000000" font-family="sans-serif" font-size="14" font-weight="bold" lengthAdjust="spacingAndGlyphs" textLength="33" x="1193" y="513.5352">Gyro</text><!--cluster Thruster--><polygon fill="#FFFFFF" filter="url(#f1n6f8j3040bom)" points="1562,444,1630,444,1637,466.4883,1995,466.4883,1995,773,1562,773,1562,444" style="stroke: #000000; stroke-width: 1.5;"/><line style="stroke: #000000; stroke-width: 1.5;" x1="1562" x2="1637" y1="466.4883" y2="466.4883"/><text fill="#000000" font-family="sans-serif" font-size="14" font-weight="bold" lengthAdjust="spacingAndGlyphs" textLength="62" x="1566" y="459.5352">Thruster</text><!--class DroneControl--><rect fill="#FEFECE" filter="url(#f1n6f8j3040bom)" height="284.2363" id="DroneControl" style="stroke: #A80036; stroke-width: 1.5;" width="356" x="866" y="43"/><ellipse cx="966.25" cy="59" fill="#ADD1B2" rx="11" ry="11" style="stroke: #A80036; stroke-width: 1.0;"/><path d="M968.7231,65.1431 Q968.1421,65.4419 967.5029,65.5913 Q966.8638,65.7407 966.1582,65.7407 Q963.6514,65.7407 962.3315,64.0889 Q961.0117,62.437 961.0117,59.3159 Q961.0117,56.1865 962.3315,54.5347 Q963.6514,52.8828 966.1582,52.8828 Q966.8638,52.8828 967.5112,53.0322 Q968.1587,53.1816 968.7231,53.4805 L968.7231,56.2031 Q968.0923,55.6221 967.4988,55.3523 Q966.9053,55.0825 966.2744,55.0825 Q964.9297,55.0825 964.2449,56.1492 Q963.5601,57.2158 963.5601,59.3159 Q963.5601,61.4077 964.2449,62.4744 Q964.9297,63.541 966.2744,63.541 Q966.9053,63.541 967.4988,63.2712 Q968.0923,63.0015 968.7231,62.4204 Z "/><text fill="#000000" font-family="sans-serif" font-size="12" lengthAdjust="spacingAndGlyphs" textLength="76" x="986.75" y="63.5352">DroneControl</text><rect fill="#FFFFFF" height="16.1328" style="stroke: #000000; stroke-width: 1.0; stroke-dasharray: 2.0,2.0;" width="69" x="1156" y="40"/><text fill="#000000" font-family="sans-serif" font-size="12" font-style="italic" lengthAdjust="spacingAndGlyphs" textLength="67" x="1157" y="52.6016">AutoControl</text><line style="stroke: #A80036; stroke-width: 1.5;" x1="867" x2="1221" y1="75" y2="75"/><rect fill="none" height="6" style="stroke: #C82930; stroke-width: 1.0;" width="6" x="874" y="83.9775"/><text fill="#000000" font-family="sans-serif" font-size="11" lengthAdjust="spacingAndGlyphs" textLength="327" x="886" y="89.6348">IDictionary&lt;Orientation, List&lt;IMyCameraBlock&gt;&gt; = cameras</text><rect fill="none" height="6" style="stroke: #C82930; stroke-width: 1.0;" width="6" x="874" y="96.9326"/><text fill="#000000" font-family="sans-serif" font-size="11" lengthAdjust="spacingAndGlyphs" textLength="101" x="886" y="102.5898">GyroControl gyros</text><rect fill="none" height="6" style="stroke: #C82930; stroke-width: 1.0;" width="6" x="874" y="109.8877"/><text fill="#000000" font-family="sans-serif" font-size="11" lengthAdjust="spacingAndGlyphs" textLength="141" x="886" y="115.5449">ThrusterControl thrusters</text><text fill="#000000" font-family="sans-serif" font-size="11" lengthAdjust="spacingAndGlyphs" textLength="0" x="889" y="128.5"/><rect fill="none" height="6" style="stroke: #C82930; stroke-width: 1.0;" width="6" x="874" y="135.7979"/><text fill="#000000" font-family="sans-serif" font-size="11" lengthAdjust="spacingAndGlyphs" textLength="96" x="886" y="141.4551">Task current_task</text><rect fill="none" height="6" style="stroke: #C82930; stroke-width: 1.0;" width="6" x="874" y="148.7529"/><text fill="#000000" font-family="sans-serif" font-size="11" lengthAdjust="spacingAndGlyphs" textLength="237" x="886" y="154.4102">IMyGridTerminalSystem GridTerminalSystem</text><rect fill="none" height="6" style="stroke: #C82930; stroke-width: 1.0;" width="6" x="874" y="161.708"/><text fill="#000000" font-family="sans-serif" font-size="11" lengthAdjust="spacingAndGlyphs" textLength="155" x="886" y="167.3652">IMyRemoteControl controller</text><rect fill="none" height="6" style="stroke: #C82930; stroke-width: 1.0;" width="6" x="874" y="174.6631"/><text fill="#000000" font-family="sans-serif" font-size="11" lengthAdjust="spacingAndGlyphs" textLength="230" x="886" y="180.3203">private IMyTerminalBlock orientation_block</text><text fill="#000000" font-family="sans-serif" font-size="11" lengthAdjust="spacingAndGlyphs" textLength="0" x="889" y="193.2754"/><rect fill="none" height="6" style="stroke: #C82930; stroke-width: 1.0;" width="6" x="874" y="200.5732"/><text fill="#000000" font-family="sans-serif" font-size="11" lengthAdjust="spacingAndGlyphs" textLength="170" x="886" y="206.2305">double const max_speed = 400</text><line style="stroke: #A80036; stroke-width: 1.5;" x1="867" x2="1221" y1="212.5508" y2="212.5508"/><ellipse cx="877" cy="224.5283" fill="#84BE84" rx="3" ry="3" style="stroke: #038048; stroke-width: 1.0;"/><text fill="#000000" font-family="sans-serif" font-size="11" lengthAdjust="spacingAndGlyphs" textLength="330" x="886" y="227.1855">DroneControler(IMyGridTerminalSystem GridTerminalSystem)</text><ellipse cx="877" cy="237.4834" fill="#84BE84" rx="3" ry="3" style="stroke: #038048; stroke-width: 1.0;"/><text fill="#000000" font-family="sans-serif" font-size="11" lengthAdjust="spacingAndGlyphs" textLength="99" x="886" y="240.1406">SetTask(Task task)</text><ellipse cx="877" cy="250.4385" fill="#84BE84" rx="3" ry="3" style="stroke: #038048; stroke-width: 1.0;"/><text fill="#000000" font-family="sans-serif" font-size="11" lengthAdjust="spacingAndGlyphs" textLength="149" x="886" y="253.0957">Vector3D CurrentLocation()</text><ellipse cx="877" cy="263.3936" fill="#84BE84" rx="3" ry="3" style="stroke: #038048; stroke-width: 1.0;"/><text fill="#000000" font-family="sans-serif" font-size="11" lengthAdjust="spacingAndGlyphs" textLength="149" x="886" y="266.0508">Vector3D GetLocalVelocity()</text><ellipse cx="877" cy="276.3486" fill="#84BE84" rx="3" ry="3" style="stroke: #038048; stroke-width: 1.0;"/><text fill="#000000" font-family="sans-serif" font-size="11" lengthAdjust="spacingAndGlyphs" textLength="252" x="886" y="279.0059">Vector3D CalcLocalSpace(Vector3D wolrd_pos)</text><line style="stroke: #A80036; stroke-width: 1.5;" x1="867" x2="1221" y1="285.3262" y2="285.3262"/><rect fill="#F24D5C" height="6" style="stroke: #C82930; stroke-width: 1.0;" width="6" x="874" y="294.3037"/><text fill="#000000" font-family="sans-serif" font-size="11" lengthAdjust="spacingAndGlyphs" textLength="152" x="886" y="299.9609">bool GoTo(Vector3D Target)</text><line style="stroke: #A80036; stroke-width: 1.5;" x1="867" x2="1221" y1="306.2813" y2="306.2813"/><ellipse cx="877" cy="318.2588" fill="#84BE84" rx="3" ry="3" style="stroke: #038048; stroke-width: 1.0;"/><text fill="#000000" font-family="sans-serif" font-size="11" lengthAdjust="spacingAndGlyphs" textLength="27" x="886" y="320.916">run()</text><!--class Orientation--><rect fill="#FEFECE" filter="url(#f1n6f8j3040bom)" height="151.6406" id="Orientation" style="stroke: #A80036; stroke-width: 1.5;" width="193" x="164.5" y="542"/><ellipse cx="225.25" cy="558" fill="#EB937F" rx="11" ry="11" style="stroke: #A80036; stroke-width: 1.0;"/><path d="M228.8643,564.5 L221.1445,564.5 L221.1445,552.1069 L228.8643,552.1069 L228.8643,554.2651 L223.5933,554.2651 L223.5933,556.938 L228.3662,556.938 L228.3662,559.0962 L223.5933,559.0962 L223.5933,562.3418 L228.8643,562.3418 Z "/><text fill="#000000" font-family="sans-serif" font-size="12" lengthAdjust="spacingAndGlyphs" textLength="63" x="245.75" y="562.5352">Orientation</text><line style="stroke: #A80036; stroke-width: 1.5;" x1="165.5" x2="356.5" y1="574" y2="574"/><text fill="#000000" font-family="sans-serif" font-size="11" lengthAdjust="spacingAndGlyphs" textLength="15" x="170.5" y="588.6348">Up</text><text fill="#000000" font-family="sans-serif" font-size="11" lengthAdjust="spacingAndGlyphs" textLength="30" x="170.5" y="601.5898">Down</text><text fill="#000000" font-family="sans-serif" font-size="11" lengthAdjust="spacingAndGlyphs" textLength="50" x="170.5" y="614.5449">Backward</text><text fill="#000000" font-family="sans-serif" font-size="11" lengthAdjust="spacingAndGlyphs" textLength="44" x="170.5" y="627.5">Forward</text><text fill="#000000" font-family="sans-serif" font-size="11" lengthAdjust="spacingAndGlyphs" textLength="28" x="170.5" y="640.4551">Right</text><text fill="#000000" font-family="sans-serif" font-size="11" lengthAdjust="spacingAndGlyphs" textLength="20" x="170.5" y="653.4102">Left</text><line style="stroke: #A80036; stroke-width: 1.5;" x1="165.5" x2="356.5" y1="659.7305" y2="659.7305"/><ellipse cx="175.5" cy="671.708" fill="#84BE84" rx="3" ry="3" style="stroke: #038048; stroke-width: 1.0;"/><text fill="#000000" font-family="sans-serif" font-size="11" lengthAdjust="spacingAndGlyphs" textLength="47" x="184.5" y="674.3652">Inverse()</text><ellipse cx="175.5" cy="684.6631" fill="#84BE84" rx="3" ry="3" style="stroke: #038048; stroke-width: 1.0;"/><text fill="#000000" font-family="sans-serif" font-size="11" lengthAdjust="spacingAndGlyphs" textLength="167" x="184.5" y="687.3203">CalcVelocity(Vector3D velocity)</text><!--class AutoControl--><rect fill="#FEFECE" filter="url(#f1n6f8j3040bom)" height="60.9551" id="AutoControl" style="stroke: #A80036; stroke-width: 1.5;" width="99" x="30.5" y="587.5"/><ellipse cx="45.5" cy="603.5" fill="#B4A7E5" rx="11" ry="11" style="stroke: #A80036; stroke-width: 1.0;"/><path d="M41.9277,599.7651 L41.9277,597.6069 L49.3071,597.6069 L49.3071,599.7651 L46.8418,599.7651 L46.8418,607.8418 L49.3071,607.8418 L49.3071,610 L41.9277,610 L41.9277,607.8418 L44.3931,607.8418 L44.3931,599.7651 Z "/><text fill="#000000" font-family="sans-serif" font-size="12" font-style="italic" lengthAdjust="spacingAndGlyphs" textLength="67" x="59.5" y="608.0352">AutoControl</text><line style="stroke: #A80036; stroke-width: 1.5;" x1="31.5" x2="128.5" y1="619.5" y2="619.5"/><line style="stroke: #A80036; stroke-width: 1.5;" x1="31.5" x2="128.5" y1="627.5" y2="627.5"/><text fill="#000000" font-family="sans-serif" font-size="11" lengthAdjust="spacingAndGlyphs" textLength="73" x="36.5" y="642.1348">DisableAuto()</text><!--class action_tpye--><rect fill="#FEFECE" filter="url(#f1n6f8j3040bom)" height="73.9102" id="action_tpye" style="stroke: #A80036; stroke-width: 1.5;" width="97" x="614.5" y="581"/><ellipse cx="629.5" cy="597" fill="#EB937F" rx="11" ry="11" style="stroke: #A80036; stroke-width: 1.0;"/><path d="M633.1143,603.5 L625.3945,603.5 L625.3945,591.1069 L633.1143,591.1069 L633.1143,593.2651 L627.8433,593.2651 L627.8433,595.938 L632.6162,595.938 L632.6162,598.0962 L627.8433,598.0962 L627.8433,601.3418 L633.1143,601.3418 Z "/><text fill="#000000" font-family="sans-serif" font-size="12" lengthAdjust="spacingAndGlyphs" textLength="65" x="643.5" y="601.5352">action_tpye</text><line style="stroke: #A80036; stroke-width: 1.5;" x1="615.5" x2="710.5" y1="613" y2="613"/><text fill="#000000" font-family="sans-serif" font-size="11" lengthAdjust="spacingAndGlyphs" textLength="29" x="620.5" y="627.6348">GoTo</text><text fill="#000000" font-family="sans-serif" font-size="11" lengthAdjust="spacingAndGlyphs" textLength="34" x="620.5" y="640.5898">Follow</text><line style="stroke: #A80036; stroke-width: 1.5;" x1="615.5" x2="710.5" y1="646.9102" y2="646.9102"/><!--class DroneAction--><rect fill="#FEFECE" filter="url(#f1n6f8j3040bom)" height="99.8203" id="DroneAction" style="stroke: #A80036; stroke-width: 1.5;" width="209" x="407.5" y="1936"/><ellipse cx="472.75" cy="1952" fill="#A9DCDF" rx="11" ry="11" style="stroke: #A80036; stroke-width: 1.0;"/><path d="M472.8633,1947.5981 L471.7095,1952.6699 L474.0254,1952.6699 Z M471.3691,1945.3569 L474.3657,1945.3569 L477.7109,1957.75 L475.2622,1957.75 L474.4985,1954.687 L471.2197,1954.687 L470.4727,1957.75 L468.0239,1957.75 Z "/><text fill="#000000" font-family="sans-serif" font-size="12" font-style="italic" lengthAdjust="spacingAndGlyphs" textLength="70" x="493.25" y="1956.5352">DroneAction</text><line style="stroke: #A80036; stroke-width: 1.5;" x1="408.5" x2="615.5" y1="1968" y2="1968"/><text fill="#000000" font-family="sans-serif" font-size="11" lengthAdjust="spacingAndGlyphs" textLength="121" x="413.5" y="1982.6348">const action_tpye type</text><line style="stroke: #A80036; stroke-width: 1.5;" x1="408.5" x2="615.5" y1="1988.9551" y2="1988.9551"/><text fill="#000000" font-family="sans-serif" font-size="11" font-style="italic" lengthAdjust="spacingAndGlyphs" textLength="119" x="413.5" y="2003.5898">action_tpye get_type()</text><text fill="#000000" font-family="sans-serif" font-size="11" font-style="italic" lengthAdjust="spacingAndGlyphs" textLength="87" x="413.5" y="2016.5449">string Serialize()</text><text fill="#000000" font-family="sans-serif" font-size="11" font-style="italic" lengthAdjust="spacingAndGlyphs" textLength="197" x="413.5" y="2029.5">bool Deserialization(string objective)</text><!--class GoTo--><rect fill="#FEFECE" filter="url(#f1n6f8j3040bom)" height="164.5957" id="GoTo" style="stroke: #A80036; stroke-width: 1.5;" width="240" x="392" y="1276"/><ellipse cx="492.25" cy="1292" fill="#ADD1B2" rx="11" ry="11" style="stroke: #A80036; stroke-width: 1.0;"/><path d="M494.7231,1298.1431 Q494.1421,1298.4419 493.5029,1298.5913 Q492.8638,1298.7407 492.1582,1298.7407 Q489.6514,1298.7407 488.3315,1297.0889 Q487.0117,1295.437 487.0117,1292.3159 Q487.0117,1289.1865 488.3315,1287.5347 Q489.6514,1285.8828 492.1582,1285.8828 Q492.8638,1285.8828 493.5112,1286.0322 Q494.1587,1286.1816 494.7231,1286.4805 L494.7231,1289.2031 Q494.0923,1288.6221 493.4988,1288.3523 Q492.9053,1288.0825 492.2744,1288.0825 Q490.9297,1288.0825 490.2449,1289.1492 Q489.5601,1290.2158 489.5601,1292.3159 Q489.5601,1294.4077 490.2449,1295.4744 Q490.9297,1296.541 492.2744,1296.541 Q492.9053,1296.541 493.4988,1296.2712 Q494.0923,1296.0015 494.7231,1295.4204 Z "/><text fill="#000000" font-family="sans-serif" font-size="12" lengthAdjust="spacingAndGlyphs" textLength="31" x="512.75" y="1296.5352">GoTo</text><line style="stroke: #A80036; stroke-width: 1.5;" x1="393" x2="631" y1="1308" y2="1308"/><text fill="#000000" font-family="sans-serif" font-size="11" lengthAdjust="spacingAndGlyphs" textLength="165" x="398" y="1322.6348">const type = action_tpye.GoTo</text><text fill="#000000" font-family="sans-serif" font-size="11" lengthAdjust="spacingAndGlyphs" textLength="0" x="401" y="1335.5898"/><text fill="#000000" font-family="sans-serif" font-size="11" lengthAdjust="spacingAndGlyphs" textLength="119" x="398" y="1348.5449">List&lt;Vector3D&gt; route</text><text fill="#000000" font-family="sans-serif" font-size="11" lengthAdjust="spacingAndGlyphs" textLength="80" x="398" y="1361.5">tolorance = 10</text><line style="stroke: #A80036; stroke-width: 1.5;" x1="393" x2="631" y1="1367.8203" y2="1367.8203"/><text fill="#000000" font-family="sans-serif" font-size="11" lengthAdjust="spacingAndGlyphs" textLength="228" x="398" y="1382.4551">GoTo(Vector3D target, float tolorance = 5)</text><text fill="#000000" font-family="sans-serif" font-size="11" lengthAdjust="spacingAndGlyphs" textLength="120" x="398" y="1395.4102">GoTo(string objective)</text><text fill="#000000" font-family="sans-serif" font-size="11" lengthAdjust="spacingAndGlyphs" textLength="86" x="398" y="1408.3652">bool Complete()</text><text fill="#000000" font-family="sans-serif" font-size="11" lengthAdjust="spacingAndGlyphs" textLength="119" x="398" y="1421.3203">Vector3D Next_Point()</text><text fill="#000000" font-family="sans-serif" font-size="11" lengthAdjust="spacingAndGlyphs" textLength="144" x="398" y="1434.2754">Add_Point(Vector3D point)</text><!--class Task--><rect fill="#FEFECE" filter="url(#f1n6f8j3040bom)" height="112.7754" id="Task" style="stroke: #A80036; stroke-width: 1.5;" width="187" x="392.5" y="561.5"/><ellipse cx="467.75" cy="577.5" fill="#ADD1B2" rx="11" ry="11" style="stroke: #A80036; stroke-width: 1.0;"/><path d="M470.2231,583.6431 Q469.6421,583.9419 469.0029,584.0913 Q468.3638,584.2407 467.6582,584.2407 Q465.1514,584.2407 463.8315,582.5889 Q462.5117,580.937 462.5117,577.8159 Q462.5117,574.6865 463.8315,573.0347 Q465.1514,571.3828 467.6582,571.3828 Q468.3638,571.3828 469.0112,571.5322 Q469.6587,571.6816 470.2231,571.9805 L470.2231,574.7031 Q469.5923,574.1221 468.9988,573.8523 Q468.4053,573.5825 467.7744,573.5825 Q466.4297,573.5825 465.7449,574.6492 Q465.0601,575.7158 465.0601,577.8159 Q465.0601,579.9077 465.7449,580.9744 Q466.4297,582.041 467.7744,582.041 Q468.4053,582.041 468.9988,581.7712 Q469.5923,581.5015 470.2231,580.9204 Z "/><text fill="#000000" font-family="sans-serif" font-size="12" lengthAdjust="spacingAndGlyphs" textLength="28" x="488.25" y="582.0352">Task</text><line style="stroke: #A80036; stroke-width: 1.5;" x1="393.5" x2="578.5" y1="593.5" y2="593.5"/><text fill="#000000" font-family="sans-serif" font-size="11" lengthAdjust="spacingAndGlyphs" textLength="147" x="398.5" y="608.1348">List&lt;DroneAction&gt; actions</text><line style="stroke: #A80036; stroke-width: 1.5;" x1="393.5" x2="578.5" y1="614.4551" y2="614.4551"/><text fill="#000000" font-family="sans-serif" font-size="11" lengthAdjust="spacingAndGlyphs" textLength="169" x="398.5" y="629.0898">DroneAction Get_Next_Action()</text><text fill="#000000" font-family="sans-serif" font-size="11" lengthAdjust="spacingAndGlyphs" textLength="127" x="398.5" y="642.0449">bool Action_Complete()</text><text fill="#000000" font-family="sans-serif" font-size="11" lengthAdjust="spacingAndGlyphs" textLength="175" x="398.5" y="655">Add_Action(DroneAction action)</text><text fill="#000000" font-family="sans-serif" font-size="11" lengthAdjust="spacingAndGlyphs" textLength="139" x="398.5" y="667.9551">Add_Action(String action)</text><!--class ShipSystems--><rect fill="#FEFECE" filter="url(#f1n6f8j3040bom)" height="112.7754" id="ShipSystems" style="stroke: #A80036; stroke-width: 1.5;" width="263" x="1555.5" y="128.5"/><ellipse cx="1647.75" cy="144.5" fill="#ADD1B2" rx="11" ry="11" style="stroke: #A80036; stroke-width: 1.0;"/><path d="M1650.2231,150.6431 Q1649.6421,150.9419 1649.0029,151.0913 Q1648.3638,151.2407 1647.6582,151.2407 Q1645.1514,151.2407 1643.8315,149.5889 Q1642.5117,147.937 1642.5117,144.8159 Q1642.5117,141.6865 1643.8315,140.0347 Q1645.1514,138.3828 1647.6582,138.3828 Q1648.3638,138.3828 1649.0112,138.5322 Q1649.6587,138.6816 1650.2231,138.9805 L1650.2231,141.7031 Q1649.5923,141.1221 1648.9988,140.8523 Q1648.4053,140.5825 1647.7744,140.5825 Q1646.4297,140.5825 1645.7449,141.6492 Q1645.0601,142.7158 1645.0601,144.8159 Q1645.0601,146.9077 1645.7449,147.9744 Q1646.4297,149.041 1647.7744,149.041 Q1648.4053,149.041 1648.9988,148.7712 Q1649.5923,148.5015 1650.2231,147.9204 Z "/><text fill="#000000" font-family="sans-serif" font-size="12" lengthAdjust="spacingAndGlyphs" textLength="70" x="1668.25" y="149.0352">ShipSystems</text><line style="stroke: #A80036; stroke-width: 1.5;" x1="1556.5" x2="1817.5" y1="160.5" y2="160.5"/><ellipse cx="1566.5" cy="172.4775" fill="none" rx="3" ry="3" style="stroke: #038048; stroke-width: 1.0;"/><text fill="#000000" font-family="sans-serif" font-size="11" lengthAdjust="spacingAndGlyphs" textLength="158" x="1575.5" y="175.1348">Vector3D stopping_distances</text><ellipse cx="1566.5" cy="185.4326" fill="none" rx="3" ry="3" style="stroke: #038048; stroke-width: 1.0;"/><text fill="#000000" font-family="sans-serif" font-size="11" lengthAdjust="spacingAndGlyphs" textLength="94" x="1575.5" y="188.0898">Vector3D velocity</text><ellipse cx="1566.5" cy="198.3877" fill="none" rx="3" ry="3" style="stroke: #038048; stroke-width: 1.0;"/><text fill="#000000" font-family="sans-serif" font-size="11" lengthAdjust="spacingAndGlyphs" textLength="96" x="1575.5" y="201.0449">Task current_task</text><ellipse cx="1566.5" cy="211.3428" fill="none" rx="3" ry="3" style="stroke: #038048; stroke-width: 1.0;"/><text fill="#000000" font-family="sans-serif" font-size="11" lengthAdjust="spacingAndGlyphs" textLength="237" x="1575.5" y="214">IMyGridTerminalSystem GridTerminalSystem</text><ellipse cx="1566.5" cy="224.2979" fill="none" rx="3" ry="3" style="stroke: #038048; stroke-width: 1.0;"/><text fill="#000000" font-family="sans-serif" font-size="11" lengthAdjust="spacingAndGlyphs" textLength="155" x="1575.5" y="226.9551">IMyRemoteControl controller</text><line style="stroke: #A80036; stroke-width: 1.5;" x1="1556.5" x2="1817.5" y1="233.2754" y2="233.2754"/><!--class Camera_Mode--><rect fill="#FEFECE" filter="url(#f1n6f8j3040bom)" height="60.9551" id="Camera_Mode" style="stroke: #A80036; stroke-width: 1.5;" width="121" x="1040.5" y="587.5"/><ellipse cx="1058.2" cy="603.5" fill="#EB937F" rx="11" ry="11" style="stroke: #A80036; stroke-width: 1.0;"/><path d="M1061.8143,610 L1054.0945,610 L1054.0945,597.6069 L1061.8143,597.6069 L1061.8143,599.7651 L1056.5433,599.7651 L1056.5433,602.438 L1061.3162,602.438 L1061.3162,604.5962 L1056.5433,604.5962 L1056.5433,607.8418 L1061.8143,607.8418 Z "/><text fill="#000000" font-family="sans-serif" font-size="12" lengthAdjust="spacingAndGlyphs" textLength="83" x="1072.8" y="608.0352">Camera_Mode</text><line style="stroke: #A80036; stroke-width: 1.5;" x1="1041.5" x2="1160.5" y1="619.5" y2="619.5"/><text fill="#000000" font-family="sans-serif" font-size="11" lengthAdjust="spacingAndGlyphs" textLength="109" x="1046.5" y="634.1348">Collision_Avoidance</text><line style="stroke: #A80036; stroke-width: 1.5;" x1="1041.5" x2="1160.5" y1="640.4551" y2="640.4551"/><!--class Camera--><rect fill="#FEFECE" filter="url(#f1n6f8j3040bom)" height="185.5508" id="Camera" style="stroke: #A80036; stroke-width: 1.5;" width="258" x="747" y="525"/><ellipse cx="849.25" cy="541" fill="#ADD1B2" rx="11" ry="11" style="stroke: #A80036; stroke-width: 1.0;"/><path d="M851.7231,547.1431 Q851.1421,547.4419 850.5029,547.5913 Q849.8638,547.7407 849.1582,547.7407 Q846.6514,547.7407 845.3315,546.0889 Q844.0117,544.437 844.0117,541.3159 Q844.0117,538.1865 845.3315,536.5347 Q846.6514,534.8828 849.1582,534.8828 Q849.8638,534.8828 850.5112,535.0322 Q851.1587,535.1816 851.7231,535.4805 L851.7231,538.2031 Q851.0923,537.6221 850.4988,537.3523 Q849.9053,537.0825 849.2744,537.0825 Q847.9297,537.0825 847.2449,538.1492 Q846.5601,539.2158 846.5601,541.3159 Q846.5601,543.4077 847.2449,544.4744 Q847.9297,545.541 849.2744,545.541 Q849.9053,545.541 850.4988,545.2712 Q851.0923,545.0015 851.7231,544.4204 Z "/><text fill="#000000" font-family="sans-serif" font-size="12" lengthAdjust="spacingAndGlyphs" textLength="45" x="869.75" y="545.5352">Camera</text><line style="stroke: #A80036; stroke-width: 1.5;" x1="748" x2="1004" y1="557" y2="557"/><rect fill="none" height="6" style="stroke: #C82930; stroke-width: 1.0;" width="6" x="755" y="565.9775"/><text fill="#000000" font-family="sans-serif" font-size="11" lengthAdjust="spacingAndGlyphs" textLength="112" x="767" y="571.6348">IMyCameraBlock cam</text><ellipse cx="758" cy="581.9326" fill="none" rx="3" ry="3" style="stroke: #038048; stroke-width: 1.0;"/><text fill="#000000" font-family="sans-serif" font-size="11" lengthAdjust="spacingAndGlyphs" textLength="232" x="767" y="584.5898">«get» MyDetectedEntityInfo collision_object</text><ellipse cx="758" cy="594.8877" fill="none" rx="3" ry="3" style="stroke: #038048; stroke-width: 1.0;"/><text fill="#000000" font-family="sans-serif" font-size="11" lengthAdjust="spacingAndGlyphs" textLength="141" x="767" y="597.5449">«get» Camera_Mode mode</text><ellipse cx="758" cy="607.8428" fill="none" rx="3" ry="3" style="stroke: #038048; stroke-width: 1.0;"/><text fill="#000000" font-family="sans-serif" font-size="11" lengthAdjust="spacingAndGlyphs" textLength="108" x="767" y="610.5">double active_range</text><line style="stroke: #A80036; stroke-width: 1.5;" x1="748" x2="1004" y1="616.8203" y2="616.8203"/><ellipse cx="758" cy="641.7529" fill="#84BE84" rx="3" ry="3" style="stroke: #038048; stroke-width: 1.0;"/><text fill="#000000" font-family="sans-serif" font-size="11" lengthAdjust="spacingAndGlyphs" textLength="71" x="767" y="631.4551">void Camera(</text><text fill="#000000" font-family="sans-serif" font-size="11" lengthAdjust="spacingAndGlyphs" textLength="115" x="767" y="644.4102">IMyCameraBlock cam,</text><text fill="#000000" font-family="sans-serif" font-size="11" lengthAdjust="spacingAndGlyphs" textLength="155" x="767" y="657.3652">double active_range = 2000)</text><ellipse cx="758" cy="667.6631" fill="#84BE84" rx="3" ry="3" style="stroke: #038048; stroke-width: 1.0;"/><text fill="#000000" font-family="sans-serif" font-size="11" lengthAdjust="spacingAndGlyphs" textLength="189" x="767" y="670.3203">bool SetMode(Camera_Mode mode)</text><ellipse cx="758" cy="680.6182" fill="#84BE84" rx="3" ry="3" style="stroke: #038048; stroke-width: 1.0;"/><text fill="#000000" font-family="sans-serif" font-size="11" lengthAdjust="spacingAndGlyphs" textLength="128" x="767" y="683.2754">Vector3D GetSafePoint()</text><line style="stroke: #A80036; stroke-width: 1.5;" x1="748" x2="1004" y1="689.5957" y2="689.5957"/><ellipse cx="758" cy="701.5732" fill="#84BE84" rx="3" ry="3" style="stroke: #038048; stroke-width: 1.0;"/><text fill="#000000" font-family="sans-serif" font-size="11" lengthAdjust="spacingAndGlyphs" textLength="56" x="767" y="704.2305">bool Run()</text><!--class GyroControl--><rect fill="#FEFECE" filter="url(#f1n6f8j3040bom)" height="185.5508" id="GyroControl" style="stroke: #A80036; stroke-width: 1.5;" width="338" x="1197" y="525"/><ellipse cx="1292.25" cy="541" fill="#ADD1B2" rx="11" ry="11" style="stroke: #A80036; stroke-width: 1.0;"/><path d="M1294.7231,547.1431 Q1294.1421,547.4419 1293.5029,547.5913 Q1292.8638,547.7407 1292.1582,547.7407 Q1289.6514,547.7407 1288.3315,546.0889 Q1287.0117,544.437 1287.0117,541.3159 Q1287.0117,538.1865 1288.3315,536.5347 Q1289.6514,534.8828 1292.1582,534.8828 Q1292.8638,534.8828 1293.5112,535.0322 Q1294.1587,535.1816 1294.7231,535.4805 L1294.7231,538.2031 Q1294.0923,537.6221 1293.4988,537.3523 Q1292.9053,537.0825 1292.2744,537.0825 Q1290.9297,537.0825 1290.2449,538.1492 Q1289.5601,539.2158 1289.5601,541.3159 Q1289.5601,543.4077 1290.2449,544.4744 Q1290.9297,545.541 1292.2744,545.541 Q1292.9053,545.541 1293.4988,545.2712 Q1294.0923,545.0015 1294.7231,544.4204 Z "/><text fill="#000000" font-family="sans-serif" font-size="12" lengthAdjust="spacingAndGlyphs" textLength="68" x="1312.75" y="545.5352">GyroControl</text><rect fill="#FFFFFF" height="16.1328" style="stroke: #000000; stroke-width: 1.0; stroke-dasharray: 2.0,2.0;" width="69" x="1469" y="522"/><text fill="#000000" font-family="sans-serif" font-size="12" font-style="italic" lengthAdjust="spacingAndGlyphs" textLength="67" x="1470" y="534.6016">AutoControl</text><line style="stroke: #A80036; stroke-width: 1.5;" x1="1198" x2="1534" y1="557" y2="557"/><rect fill="none" height="6" style="stroke: #C82930; stroke-width: 1.0;" width="6" x="1205" y="565.9775"/><text fill="#000000" font-family="sans-serif" font-size="11" lengthAdjust="spacingAndGlyphs" textLength="115" x="1217" y="571.6348">List&lt;IMyGyro&gt; gyros</text><rect fill="none" height="6" style="stroke: #C82930; stroke-width: 1.0;" width="6" x="1205" y="578.9326"/><text fill="#000000" font-family="sans-serif" font-size="11" lengthAdjust="spacingAndGlyphs" textLength="237" x="1217" y="584.5898">IMyGridTerminalSystem GridTerminalSystem</text><line style="stroke: #A80036; stroke-width: 1.5;" x1="1198" x2="1534" y1="590.9102" y2="590.9102"/><ellipse cx="1208" cy="602.8877" fill="#84BE84" rx="3" ry="3" style="stroke: #038048; stroke-width: 1.0;"/><text fill="#000000" font-family="sans-serif" font-size="11" lengthAdjust="spacingAndGlyphs" textLength="312" x="1217" y="605.5449">GyroControl(IMyGridTerminalSystem GridTerminalSystem)</text><ellipse cx="1208" cy="648.2305" fill="#84BE84" rx="3" ry="3" style="stroke: #038048; stroke-width: 1.0;"/><text fill="#000000" font-family="sans-serif" font-size="11" lengthAdjust="spacingAndGlyphs" textLength="88" x="1217" y="618.5">bool OrientShip(</text><text fill="#000000" font-family="sans-serif" font-size="11" lengthAdjust="spacingAndGlyphs" textLength="115" x="1253" y="631.4551">Orientation direction,</text><text fill="#000000" font-family="sans-serif" font-size="11" lengthAdjust="spacingAndGlyphs" textLength="88" x="1253" y="644.4102">Vector3D target,</text><text fill="#000000" font-family="sans-serif" font-size="11" lengthAdjust="spacingAndGlyphs" textLength="193" x="1253" y="657.3652">IMyTerminalBlock orientation_block,</text><text fill="#000000" font-family="sans-serif" font-size="11" lengthAdjust="spacingAndGlyphs" textLength="139" x="1253" y="670.3203">double gyro_power = 0.9,</text><text fill="#000000" font-family="sans-serif" font-size="11" lengthAdjust="spacingAndGlyphs" textLength="122" x="1253" y="683.2754">float min_angle = 5.0f)</text><line style="stroke: #A80036; stroke-width: 1.5;" x1="1198" x2="1534" y1="689.5957" y2="689.5957"/><rect fill="#F24D5C" height="6" style="stroke: #C82930; stroke-width: 1.0;" width="6" x="1205" y="698.5732"/><text fill="#000000" font-family="sans-serif" font-size="11" lengthAdjust="spacingAndGlyphs" textLength="147" x="1217" y="704.2305">List&lt;IMyGyro&gt; gyrosetup()</text><!--class velocity_state--><rect fill="#FEFECE" filter="url(#f1n6f8j3040bom)" height="73.9102" id="velocity_state" style="stroke: #A80036; stroke-width: 1.5;" width="108" x="1879" y="581"/><ellipse cx="1894" cy="597" fill="#EB937F" rx="11" ry="11" style="stroke: #A80036; stroke-width: 1.0;"/><path d="M1897.6143,603.5 L1889.8945,603.5 L1889.8945,591.1069 L1897.6143,591.1069 L1897.6143,593.2651 L1892.3433,593.2651 L1892.3433,595.938 L1897.1162,595.938 L1897.1162,598.0962 L1892.3433,598.0962 L1892.3433,601.3418 L1897.6143,601.3418 Z "/><text fill="#000000" font-family="sans-serif" font-size="12" lengthAdjust="spacingAndGlyphs" textLength="76" x="1908" y="601.5352">velocity_state</text><line style="stroke: #A80036; stroke-width: 1.5;" x1="1880" x2="1986" y1="613" y2="613"/><text fill="#000000" font-family="sans-serif" font-size="11" lengthAdjust="spacingAndGlyphs" textLength="39" x="1885" y="627.6348">Moving</text><text fill="#000000" font-family="sans-serif" font-size="11" lengthAdjust="spacingAndGlyphs" textLength="42" x="1885" y="640.5898">Holding</text><line style="stroke: #A80036; stroke-width: 1.5;" x1="1880" x2="1986" y1="646.9102" y2="646.9102"/><!--class ThrusterControl--><rect fill="#FEFECE" filter="url(#f1n6f8j3040bom)" height="294.1465" id="ThrusterControl" style="stroke: #A80036; stroke-width: 1.5;" width="274" x="1570" y="471"/><ellipse cx="1622.25" cy="487" fill="#ADD1B2" rx="11" ry="11" style="stroke: #A80036; stroke-width: 1.0;"/><path d="M1624.7231,493.1431 Q1624.1421,493.4419 1623.5029,493.5913 Q1622.8638,493.7407 1622.1582,493.7407 Q1619.6514,493.7407 1618.3315,492.0889 Q1617.0117,490.437 1617.0117,487.3159 Q1617.0117,484.1865 1618.3315,482.5347 Q1619.6514,480.8828 1622.1582,480.8828 Q1622.8638,480.8828 1623.5112,481.0322 Q1624.1587,481.1816 1624.7231,481.4805 L1624.7231,484.2031 Q1624.0923,483.6221 1623.4988,483.3523 Q1622.9053,483.0825 1622.2744,483.0825 Q1620.9297,483.0825 1620.2449,484.1492 Q1619.5601,485.2158 1619.5601,487.3159 Q1619.5601,489.4077 1620.2449,490.4744 Q1620.9297,491.541 1622.2744,491.541 Q1622.9053,491.541 1623.4988,491.2712 Q1624.0923,491.0015 1624.7231,490.4204 Z "/><text fill="#000000" font-family="sans-serif" font-size="12" lengthAdjust="spacingAndGlyphs" textLength="90" x="1642.75" y="491.5352">ThrusterControl</text><rect fill="#FFFFFF" height="16.1328" style="stroke: #000000; stroke-width: 1.0; stroke-dasharray: 2.0,2.0;" width="69" x="1778" y="468"/><text fill="#000000" font-family="sans-serif" font-size="12" font-style="italic" lengthAdjust="spacingAndGlyphs" textLength="67" x="1779" y="480.6016">AutoControl</text><line style="stroke: #A80036; stroke-width: 1.5;" x1="1571" x2="1843" y1="503" y2="503"/><ellipse cx="1581" cy="514.9775" fill="none" rx="3" ry="3" style="stroke: #038048; stroke-width: 1.0;"/><text fill="#000000" font-family="sans-serif" font-size="11" lengthAdjust="spacingAndGlyphs" textLength="94" x="1590" y="517.6348">Vector3D velocity</text><ellipse cx="1581" cy="527.9326" fill="none" rx="3" ry="3" style="stroke: #038048; stroke-width: 1.0;"/><text fill="#000000" font-family="sans-serif" font-size="11" lengthAdjust="spacingAndGlyphs" textLength="158" x="1590" y="530.5898">Vector3D stopping_distances</text><polygon fill="none" points="1581,535.8877,1585,539.8877,1581,543.8877,1577,539.8877" style="stroke: #B38D22; stroke-width: 1.0;"/><text fill="#000000" font-family="sans-serif" font-size="11" lengthAdjust="spacingAndGlyphs" textLength="102" x="1590" y="543.5449">velocity_state State</text><rect fill="none" height="6" style="stroke: #C82930; stroke-width: 1.0;" width="6" x="1578" y="550.8428"/><text fill="#000000" font-family="sans-serif" font-size="11" lengthAdjust="spacingAndGlyphs" textLength="173" x="1590" y="556.5">List&lt;IMyThrust&gt; ship_thrusters</text><line style="stroke: #A80036; stroke-width: 1.5;" x1="1571" x2="1843" y1="562.8203" y2="562.8203"/><rect fill="#F24D5C" height="6" style="stroke: #C82930; stroke-width: 1.0;" width="6" x="1578" y="584.7529"/><text fill="#000000" font-family="sans-serif" font-size="11" lengthAdjust="spacingAndGlyphs" textLength="88" x="1590" y="577.4551">void SetVelocity(</text><text fill="#000000" font-family="sans-serif" font-size="11" lengthAdjust="spacingAndGlyphs" textLength="75" x="1626" y="590.4102">double target,</text><text fill="#000000" font-family="sans-serif" font-size="11" lengthAdjust="spacingAndGlyphs" textLength="116" x="1626" y="603.3652">Orientation direction)</text><rect fill="#F24D5C" height="6" style="stroke: #C82930; stroke-width: 1.0;" width="6" x="1578" y="623.6182"/><text fill="#000000" font-family="sans-serif" font-size="11" lengthAdjust="spacingAndGlyphs" textLength="102" x="1590" y="616.3203">AppleAcceleration(</text><text fill="#000000" font-family="sans-serif" font-size="11" lengthAdjust="spacingAndGlyphs" textLength="108" x="1626" y="629.2754">double acceleration,</text><text fill="#000000" font-family="sans-serif" font-size="11" lengthAdjust="spacingAndGlyphs" textLength="116" x="1626" y="642.2305">Orientation direction)</text><rect fill="#F24D5C" height="6" style="stroke: #C82930; stroke-width: 1.0;" width="6" x="1578" y="662.4834"/><text fill="#000000" font-family="sans-serif" font-size="11" lengthAdjust="spacingAndGlyphs" textLength="65" x="1590" y="655.1855">ApplyForce(</text><text fill="#000000" font-family="sans-serif" font-size="11" lengthAdjust="spacingAndGlyphs" textLength="71" x="1626" y="668.1406">double force,</text><text fill="#000000" font-family="sans-serif" font-size="11" lengthAdjust="spacingAndGlyphs" textLength="116" x="1626" y="681.0957">Orientation direction)</text><rect fill="#F24D5C" height="6" style="stroke: #C82930; stroke-width: 1.0;" width="6" x="1578" y="688.3936"/><text fill="#000000" font-family="sans-serif" font-size="11" lengthAdjust="spacingAndGlyphs" textLength="248" x="1590" y="694.0508">GetMaxDirectionalForce(Orientation direction)</text><rect fill="#F24D5C" height="6" style="stroke: #C82930; stroke-width: 1.0;" width="6" x="1578" y="701.3486"/><text fill="#000000" font-family="sans-serif" font-size="11" lengthAdjust="spacingAndGlyphs" textLength="106" x="1590" y="707.0059">EnableAllThrusers()</text><rect fill="#F24D5C" height="6" style="stroke: #C82930; stroke-width: 1.0;" width="6" x="1578" y="727.2588"/><text fill="#000000" font-family="sans-serif" font-size="11" lengthAdjust="spacingAndGlyphs" textLength="99" x="1590" y="719.9609">OverideThrusters(</text><text fill="#000000" font-family="sans-serif" font-size="11" lengthAdjust="spacingAndGlyphs" textLength="71" x="1626" y="732.916">float percent,</text><text fill="#000000" font-family="sans-serif" font-size="11" lengthAdjust="spacingAndGlyphs" textLength="116" x="1626" y="745.8711">Orientation direction)</text><rect fill="#F24D5C" height="6" style="stroke: #C82930; stroke-width: 1.0;" width="6" x="1578" y="753.1689"/><text fill="#000000" font-family="sans-serif" font-size="11" lengthAdjust="spacingAndGlyphs" textLength="73" x="1590" y="758.8262">DisableAuto()</text><!--link GoTo to DroneAction--><path d="M512,1441.121 C512,1461.207 512,1482.625 512,1502.5 C512,1502.5 512,1502.5 512,1874.5 C512,1894.5352 512,1916.5954 512,1935.7683 " fill="none" id="GoTo-DroneAction" style="stroke: #A80036; stroke-width: 1.0; stroke-dasharray: 7.0,7.0;"/><!--link Task to GoTo--><path d="M491.857,679.5617 C495.3066,721.0422 499,777.0109 499,826.5 C499,826.5 499,826.5 499,1214.5 C499,1234.4558 500.2537,1255.9045 501.9825,1275.9943 " fill="none" id="Task-GoTo" style="stroke: #A80036; stroke-width: 1.0;"/><polygon fill="#A80036" points="491.4378,674.5763,488.2061,683.8798,491.8568,679.5587,496.1779,683.2094,491.4378,674.5763" style="stroke: #A80036; stroke-width: 1.0;"/><text fill="#000000" font-family="sans-serif" font-size="13" lengthAdjust="spacingAndGlyphs" textLength="56" x="500" y="1025.5684">Contains</text><!--link DroneControl to ThrusterControl--><path d="M1226.8021,258.6286 C1327.7119,303.9737 1452.2204,367.9538 1551,444 C1561.7697,452.2911 1572.3921,461.3919 1582.7214,470.9484 " fill="none" id="DroneControl-ThrusterControl" style="stroke: #A80036; stroke-width: 1.0;"/><polygon fill="#A80036" points="1222.0149,256.4835,1228.5921,263.8143,1226.5777,258.5282,1231.8637,256.5138,1222.0149,256.4835" style="stroke: #A80036; stroke-width: 1.0;"/><!--link DroneControl to GyroControl--><path d="M1152.7821,331.2815 C1200.3682,395.2716 1254.7794,468.4394 1296.7254,524.845 " fill="none" id="DroneControl-GyroControl" style="stroke: #A80036; stroke-width: 1.0;"/><polygon fill="#A80036" points="1149.6578,327.0802,1151.8186,336.6891,1152.6415,331.0924,1158.2381,331.9152,1149.6578,327.0802" style="stroke: #A80036; stroke-width: 1.0;"/><!--link DroneControl to Task--><path d="M861.279,265.6599 C774.5907,309.8898 673.5047,370.694 597,444 C561.8142,477.7147 532.6862,524.7149 513.1099,561.3697 " fill="none" id="DroneControl-Task" style="stroke: #A80036; stroke-width: 1.0;"/><polygon fill="#A80036" points="865.9182,263.3016,856.0827,263.8142,861.461,265.5673,859.7079,270.9457,865.9182,263.3016" style="stroke: #A80036; stroke-width: 1.0;"/><text fill="#000000" font-family="sans-serif" font-size="13" lengthAdjust="spacingAndGlyphs" textLength="47" x="663" y="401.5684">Recives</text><!--link DroneControl to Camera--><path d="M988.8742,327.0802 C963.6663,392.0505 934.5086,467.201 912.1433,524.845 " fill="none" id="DroneControl-Camera" style="stroke: #A80036; stroke-width: 1.0;"/><text fill="#000000" font-family="sans-serif" font-size="13" lengthAdjust="spacingAndGlyphs" textLength="8" x="977.6408" y="347.8308">1</text><text fill="#000000" font-family="sans-serif" font-size="13" lengthAdjust="spacingAndGlyphs" textLength="6" x="908.888" y="514.1093">*</text><!--
@startuml
package DroneControl {

    package utility {
        enum Orientation {
            Up
            Down
            Backward
            Forward
            Right
            Left

            +Inverse()
            +CalcVelocity(Vector3D velocity)
        }

        interface AutoControl {
            DisableAuto()
        }

        package Task {

            enum action_tpye {
                GoTo
                Follow
            }

            abstract DroneAction {
                const action_tpye type

                {abstract} action_tpye get_type()
                {abstract} string Serialize()
                {abstract} bool Deserialization(string objective)
            }

            class GoTo {
                const type = action_tpye.GoTo

                List<Vector3D> route
                tolorance = 10

                GoTo(Vector3D target, float tolorance = 5)
                GoTo(string objective)
                bool Complete()
                Vector3D Next_Point()
                Add_Point(Vector3D point)
            }     

            class Task {
                List<DroneAction> actions

                DroneAction Get_Next_Action()
                bool Action_Complete()
                Add_Action(DroneAction action)
                Add_Action(String action)
            }

            GoTo .. DroneAction
            Task <- - GoTo : Contains
        }
    }

    package Systems {
        class ShipSystems{
            +Vector3D stopping_distances
            +Vector3D velocity
            +Task current_task
            +IMyGridTerminalSystem GridTerminalSystem
            +IMyRemoteControl controller
        }
    }

    package Camera {
        enum Camera_Mode {
            Collision_Avoidance
        }

        class Camera {
            -IMyCameraBlock cam
            +<<get>> MyDetectedEntityInfo collision_object
            +<<get>> Camera_Mode mode
            +double active_range
            __
            +void Camera(\nIMyCameraBlock cam,\ndouble active_range = 2000)
            +bool SetMode(Camera_Mode mode)
            +Vector3D GetSafePoint()
            __
            +bool Run()
        }
    }

    package Gyro {
        class GyroControl <AutoControl>{
            -List<IMyGyro> gyros
            -IMyGridTerminalSystem GridTerminalSystem
            __
            +GyroControl(IMyGridTerminalSystem GridTerminalSystem)
            +bool OrientShip(\n            Orientation direction,\n            Vector3D target,\n            IMyTerminalBlock orientation_block,\n            double gyro_power = 0.9,\n            float min_angle = 5.0f)
            __
            -List<IMyGyro> gyrosetup()
        }
    }

    package Thruster {
        enum velocity_state
        {
            Moving
            Holding
        }

        class ThrusterControl <AutoControl>{
            
            +Vector3D velocity
            +Vector3D stopping_distances
            #velocity_state State
            -List<IMyThrust> ship_thrusters

            -void SetVelocity(\n            double target,\n            Orientation direction)
            -AppleAcceleration(\n            double acceleration,\n            Orientation direction)
            -ApplyForce(\n            double force,\n            Orientation direction)
            -GetMaxDirectionalForce(Orientation direction)
            -EnableAllThrusers()
            -OverideThrusters(\n            float percent,\n            Orientation direction)
            -DisableAuto()
        }
    }

    class DroneControl <AutoControl>{
        -IDictionary<Orientation, List<IMyCameraBlock>> = cameras
        -GyroControl gyros
        -ThrusterControl thrusters

        -Task current_task
        -IMyGridTerminalSystem GridTerminalSystem
        -IMyRemoteControl controller
        -private IMyTerminalBlock orientation_block

        -double const max_speed = 400
        __
        +DroneControler(IMyGridTerminalSystem GridTerminalSystem)
        +SetTask(Task task)
        +Vector3D CurrentLocation()
        +Vector3D GetLocalVelocity()
        +Vector3D CalcLocalSpace(Vector3D wolrd_pos)
        __
        -bool GoTo(Vector3D Target)
        __
        +run()
    }

    DroneControl <- - ThrusterControl
    DroneControl <- - GyroControl
    DroneControl <- - Task : Recives
    DroneControl "1" - - "*" Camera
}
@enduml

PlantUML version 1.2019.03(Sun Mar 10 11:04:44 GMT 2019)
(GPL source distribution)
Java Runtime: Java(TM) SE Runtime Environment
JVM: Java HotSpot(TM) 64-Bit Server VM
Java Version: 9.0.4+11
Operating System: Mac OS X
OS Version: 10.14.4
Default Encoding: UTF-8
Language: en
Country: GB
--></g></svg>