<?xml version="1.0" encoding="UTF-8" standalone="no"?><svg xmlns="http://www.w3.org/2000/svg" xmlns:xlink="http://www.w3.org/1999/xlink" contentScriptType="application/ecmascript" contentStyleType="text/css" height="326px" preserveAspectRatio="none" style="width:1622px;height:326px;background:#FFFFF0;" version="1.1" viewBox="0 0 1622 326" width="1622px" zoomAndPan="magnify"><defs><filter height="300%" id="f1jua40gsk3bw4" width="300%" x="-1" y="-1"><feGaussianBlur result="blurOut" stdDeviation="2.0"/><feColorMatrix in="blurOut" result="blurOut2" type="matrix" values="0 0 0 0 0 0 0 0 0 0 0 0 0 0 0 0 0 0 .4 0"/><feOffset dx="4.0" dy="4.0" in="blurOut2" result="blurOut3"/><feBlend in="SourceGraphic" in2="blurOut3" mode="normal"/></filter></defs><g><rect fill="#FEFECE" filter="url(#f1jua40gsk3bw4)" height="34.1328" style="stroke: #A80036; stroke-width: 1.5;" width="100" x="710.75" y="10"/><text fill="#000000" font-family="sans-serif" font-size="12" lengthAdjust="spacingAndGlyphs" textLength="80" x="720.75" y="31.6016">Drone Control</text><line style="stroke: #A80036; stroke-width: 1.0;" x1="760.75" x2="760.75" y1="44.1328" y2="64.1328"/><line style="stroke: #A80036; stroke-width: 1.0;" x1="56" x2="56" y1="64.1328" y2="84.1328"/><rect fill="#FEFECE" filter="url(#f1jua40gsk3bw4)" height="34.1328" style="stroke: #A80036; stroke-width: 1.5;" width="92" x="10" y="84.1328"/><line style="stroke: #A80036; stroke-width: 1.0;" x1="10" x2="20" y1="101.1992" y2="101.1992"/><text fill="#000000" font-family="sans-serif" font-size="12" lengthAdjust="spacingAndGlyphs" text-decoration="underline" textLength="72" x="20" y="105.2344">Gyro Control</text><line style="stroke: #000000; stroke-width: 1.0;" x1="20" x2="92" y1="107.2344" y2="107.2344"/><line style="stroke: #A80036; stroke-width: 1.0;" x1="92" x2="102" y1="101.1992" y2="101.1992"/><rect fill="#FEFECE" filter="url(#f1jua40gsk3bw4)" height="34.1328" style="stroke: #A80036; stroke-width: 1.5;" width="114" x="66" y="133.2656"/><line style="stroke: #A80036; stroke-width: 1.0;" x1="66" x2="76" y1="150.332" y2="150.332"/><text fill="#000000" font-family="sans-serif" font-size="12" lengthAdjust="spacingAndGlyphs" text-decoration="underline" textLength="94" x="76" y="154.3672">Align with vector</text><line style="stroke: #000000; stroke-width: 1.0;" x1="76" x2="170" y1="156.3672" y2="156.3672"/><line style="stroke: #A80036; stroke-width: 1.0;" x1="170" x2="180" y1="150.332" y2="150.332"/><line style="stroke: #A80036; stroke-width: 1.0;" x1="123" x2="123" y1="167.3984" y2="167.3984"/><line style="stroke: #A80036; stroke-width: 1.0;" x1="56" x2="66" y1="150.332" y2="150.332"/><line style="stroke: #A80036; stroke-width: 1.0;" x1="56" x2="56" y1="118.2656" y2="150.332"/><line style="stroke: #A80036; stroke-width: 1.0;" x1="257" x2="257" y1="64.1328" y2="84.1328"/><rect fill="#FEFECE" filter="url(#f1jua40gsk3bw4)" height="34.1328" style="stroke: #A80036; stroke-width: 1.5;" width="114" x="200" y="84.1328"/><line style="stroke: #A80036; stroke-width: 1.0;" x1="200" x2="210" y1="101.1992" y2="101.1992"/><text fill="#000000" font-family="sans-serif" font-size="12" lengthAdjust="spacingAndGlyphs" text-decoration="underline" textLength="94" x="210" y="105.2344">Thruster Control</text><line style="stroke: #000000; stroke-width: 1.0;" x1="210" x2="304" y1="107.2344" y2="107.2344"/><line style="stroke: #A80036; stroke-width: 1.0;" x1="304" x2="314" y1="101.1992" y2="101.1992"/><rect fill="#FEFECE" filter="url(#f1jua40gsk3bw4)" height="34.1328" style="stroke: #A80036; stroke-width: 1.5;" width="208" x="267" y="133.2656"/><line style="stroke: #A80036; stroke-width: 1.0;" x1="267" x2="277" y1="150.332" y2="150.332"/><text fill="#000000" font-family="sans-serif" font-size="12" lengthAdjust="spacingAndGlyphs" text-decoration="underline" textLength="188" x="277" y="154.3672">Control thruster in local direction</text><line style="stroke: #000000; stroke-width: 1.0;" x1="277" x2="465" y1="156.3672" y2="156.3672"/><line style="stroke: #A80036; stroke-width: 1.0;" x1="465" x2="475" y1="150.332" y2="150.332"/><line style="stroke: #A80036; stroke-width: 1.0;" x1="371" x2="371" y1="167.3984" y2="167.3984"/><line style="stroke: #A80036; stroke-width: 1.0;" x1="257" x2="267" y1="150.332" y2="150.332"/><rect fill="#FEFECE" filter="url(#f1jua40gsk3bw4)" height="34.1328" style="stroke: #A80036; stroke-width: 1.5;" width="207" x="267" y="182.3984"/><line style="stroke: #A80036; stroke-width: 1.0;" x1="267" x2="277" y1="199.4648" y2="199.4648"/><text fill="#000000" font-family="sans-serif" font-size="12" lengthAdjust="spacingAndGlyphs" text-decoration="underline" textLength="187" x="277" y="203.5">Calculate thrust in local direction</text><line style="stroke: #000000; stroke-width: 1.0;" x1="277" x2="464" y1="205.5" y2="205.5"/><line style="stroke: #A80036; stroke-width: 1.0;" x1="464" x2="474" y1="199.4648" y2="199.4648"/><line style="stroke: #A80036; stroke-width: 1.0;" x1="370.5" x2="370.5" y1="216.5313" y2="216.5313"/><line style="stroke: #A80036; stroke-width: 1.0;" x1="257" x2="267" y1="199.4648" y2="199.4648"/><text fill="#000000" font-family="sans-serif" font-size="12" lengthAdjust="spacingAndGlyphs" textLength="134" x="267" y="244.1328">Apply forch in direction</text><line style="stroke: #A80036; stroke-width: 1.0;" x1="335.5" x2="335.5" y1="247.6641" y2="247.6641"/><line style="stroke: #A80036; stroke-width: 1.0;" x1="257" x2="267" y1="239.5977" y2="239.5977"/><line style="stroke: #A80036; stroke-width: 1.0;" x1="257" x2="257" y1="118.2656" y2="239.5977"/><line style="stroke: #A80036; stroke-width: 1.0;" x1="583.5" x2="583.5" y1="64.1328" y2="84.1328"/><rect fill="#FEFECE" filter="url(#f1jua40gsk3bw4)" height="34.1328" style="stroke: #A80036; stroke-width: 1.5;" width="177" x="495" y="84.1328"/><text fill="#000000" font-family="sans-serif" font-size="12" lengthAdjust="spacingAndGlyphs" textLength="157" x="505" y="105.7344">Thruster &amp; Gyro Integration</text><rect fill="#FEFECE" filter="url(#f1jua40gsk3bw4)" height="34.1328" style="stroke: #A80036; stroke-width: 1.5;" width="158" x="593.5" y="133.2656"/><line style="stroke: #A80036; stroke-width: 1.0;" x1="593.5" x2="603.5" y1="150.332" y2="150.332"/><text fill="#000000" font-family="sans-serif" font-size="12" lengthAdjust="spacingAndGlyphs" text-decoration="underline" textLength="138" x="603.5" y="154.3672">Maintain foward velocity</text><line style="stroke: #000000; stroke-width: 1.0;" x1="603.5" x2="741.5" y1="156.3672" y2="156.3672"/><line style="stroke: #A80036; stroke-width: 1.0;" x1="741.5" x2="751.5" y1="150.332" y2="150.332"/><line style="stroke: #A80036; stroke-width: 1.0;" x1="672.5" x2="672.5" y1="167.3984" y2="167.3984"/><line style="stroke: #A80036; stroke-width: 1.0;" x1="583.5" x2="593.5" y1="150.332" y2="150.332"/><rect fill="#FEFECE" filter="url(#f1jua40gsk3bw4)" height="34.1328" style="stroke: #A80036; stroke-width: 1.5;" width="167" x="593.5" y="182.3984"/><line style="stroke: #A80036; stroke-width: 1.0;" x1="593.5" x2="603.5" y1="199.4648" y2="199.4648"/><text fill="#000000" font-family="sans-serif" font-size="12" lengthAdjust="spacingAndGlyphs" text-decoration="underline" textLength="147" x="603.5" y="203.5">Determin stopping speed</text><line style="stroke: #000000; stroke-width: 1.0;" x1="603.5" x2="750.5" y1="205.5" y2="205.5"/><line style="stroke: #A80036; stroke-width: 1.0;" x1="750.5" x2="760.5" y1="199.4648" y2="199.4648"/><line style="stroke: #A80036; stroke-width: 1.0;" x1="677" x2="677" y1="216.5313" y2="216.5313"/><line style="stroke: #A80036; stroke-width: 1.0;" x1="583.5" x2="593.5" y1="199.4648" y2="199.4648"/><rect fill="#FEFECE" filter="url(#f1jua40gsk3bw4)" height="34.1328" style="stroke: #A80036; stroke-width: 1.5;" width="201" x="593.5" y="231.5313"/><text fill="#000000" font-family="sans-serif" font-size="12" lengthAdjust="spacingAndGlyphs" textLength="181" x="603.5" y="253.1328">Flip and burn (emergancy stop)</text><line style="stroke: #A80036; stroke-width: 1.0;" x1="694" x2="694" y1="265.6641" y2="265.6641"/><line style="stroke: #A80036; stroke-width: 1.0;" x1="583.5" x2="593.5" y1="248.5977" y2="248.5977"/><rect fill="#FEFECE" filter="url(#f1jua40gsk3bw4)" height="34.1328" style="stroke: #A80036; stroke-width: 1.5;" width="191" x="593.5" y="280.6641"/><text fill="#000000" font-family="sans-serif" font-size="12" lengthAdjust="spacingAndGlyphs" textLength="171" x="603.5" y="302.2656">implement drone control calls</text><line style="stroke: #A80036; stroke-width: 1.0;" x1="689" x2="689" y1="314.7969" y2="314.7969"/><line style="stroke: #A80036; stroke-width: 1.0;" x1="583.5" x2="593.5" y1="297.7305" y2="297.7305"/><line style="stroke: #A80036; stroke-width: 1.0;" x1="583.5" x2="583.5" y1="118.2656" y2="297.7305"/><line style="stroke: #A80036; stroke-width: 1.0;" x1="863.5" x2="863.5" y1="64.1328" y2="84.1328"/><rect fill="#FEFECE" filter="url(#f1jua40gsk3bw4)" height="34.1328" style="stroke: #A80036; stroke-width: 1.5;" width="98" x="814.5" y="84.1328"/><text fill="#000000" font-family="sans-serif" font-size="12" lengthAdjust="spacingAndGlyphs" textLength="78" x="824.5" y="105.7344">Basic Tasking</text><rect fill="#FEFECE" filter="url(#f1jua40gsk3bw4)" height="34.1328" style="stroke: #A80036; stroke-width: 1.5;" width="128" x="873.5" y="133.2656"/><text fill="#000000" font-family="sans-serif" font-size="12" lengthAdjust="spacingAndGlyphs" textLength="108" x="883.5" y="154.8672">setup task structer</text><line style="stroke: #A80036; stroke-width: 1.0;" x1="937.5" x2="937.5" y1="167.3984" y2="167.3984"/><line style="stroke: #A80036; stroke-width: 1.0;" x1="863.5" x2="873.5" y1="150.332" y2="150.332"/><rect fill="#FEFECE" filter="url(#f1jua40gsk3bw4)" height="34.1328" style="stroke: #A80036; stroke-width: 1.5;" width="154" x="873.5" y="182.3984"/><text fill="#000000" font-family="sans-serif" font-size="12" lengthAdjust="spacingAndGlyphs" textLength="134" x="883.5" y="204">implement GoTo action</text><line style="stroke: #A80036; stroke-width: 1.0;" x1="950.5" x2="950.5" y1="216.5313" y2="216.5313"/><line style="stroke: #A80036; stroke-width: 1.0;" x1="863.5" x2="873.5" y1="199.4648" y2="199.4648"/><line style="stroke: #A80036; stroke-width: 1.0;" x1="863.5" x2="863.5" y1="118.2656" y2="199.4648"/><line style="stroke: #A80036; stroke-width: 1.0;" x1="1112.5" x2="1112.5" y1="64.1328" y2="84.1328"/><rect fill="#FEFECE" filter="url(#f1jua40gsk3bw4)" height="34.1328" style="stroke: #A80036; stroke-width: 1.5;" width="130" x="1047.5" y="84.1328"/><text fill="#000000" font-family="sans-serif" font-size="12" lengthAdjust="spacingAndGlyphs" textLength="110" x="1057.5" y="105.7344">Camera Integration</text><rect fill="#FEFECE" filter="url(#f1jua40gsk3bw4)" height="34.1328" style="stroke: #A80036; stroke-width: 1.5;" width="115" x="1122.5" y="133.2656"/><text fill="#000000" font-family="sans-serif" font-size="12" lengthAdjust="spacingAndGlyphs" textLength="95" x="1132.5" y="154.8672">Object detection</text><line style="stroke: #A80036; stroke-width: 1.0;" x1="1180" x2="1180" y1="167.3984" y2="167.3984"/><line style="stroke: #A80036; stroke-width: 1.0;" x1="1112.5" x2="1122.5" y1="150.332" y2="150.332"/><rect fill="#FEFECE" filter="url(#f1jua40gsk3bw4)" height="34.1328" style="stroke: #A80036; stroke-width: 1.5;" width="165" x="1122.5" y="182.3984"/><text fill="#000000" font-family="sans-serif" font-size="12" lengthAdjust="spacingAndGlyphs" textLength="145" x="1132.5" y="204">Object boundary location</text><line style="stroke: #A80036; stroke-width: 1.0;" x1="1205" x2="1205" y1="216.5313" y2="216.5313"/><line style="stroke: #A80036; stroke-width: 1.0;" x1="1112.5" x2="1122.5" y1="199.4648" y2="199.4648"/><line style="stroke: #A80036; stroke-width: 1.0;" x1="1112.5" x2="1112.5" y1="118.2656" y2="199.4648"/><line style="stroke: #A80036; stroke-width: 1.0;" x1="1370.5" x2="1370.5" y1="64.1328" y2="84.1328"/><rect fill="#FEFECE" filter="url(#f1jua40gsk3bw4)" height="34.1328" style="stroke: #A80036; stroke-width: 1.5;" width="126" x="1307.5" y="84.1328"/><text fill="#000000" font-family="sans-serif" font-size="12" lengthAdjust="spacingAndGlyphs" textLength="106" x="1317.5" y="105.7344">Advanced Tasking</text><rect fill="#FEFECE" filter="url(#f1jua40gsk3bw4)" height="34.1328" style="stroke: #A80036; stroke-width: 1.5;" width="231" x="1380.5" y="133.2656"/><text fill="#000000" font-family="sans-serif" font-size="12" lengthAdjust="spacingAndGlyphs" textLength="211" x="1390.5" y="154.8672">Add collition avoidance to GoTo task</text><line style="stroke: #A80036; stroke-width: 1.0;" x1="1496" x2="1496" y1="167.3984" y2="167.3984"/><line style="stroke: #A80036; stroke-width: 1.0;" x1="1370.5" x2="1380.5" y1="150.332" y2="150.332"/><rect fill="#FEFECE" filter="url(#f1jua40gsk3bw4)" height="34.1328" style="stroke: #A80036; stroke-width: 1.5;" width="66" x="1380.5" y="182.3984"/><text fill="#000000" font-family="sans-serif" font-size="12" lengthAdjust="spacingAndGlyphs" textLength="46" x="1390.5" y="204">Docking</text><line style="stroke: #A80036; stroke-width: 1.0;" x1="1413.5" x2="1413.5" y1="216.5313" y2="216.5313"/><line style="stroke: #A80036; stroke-width: 1.0;" x1="1370.5" x2="1380.5" y1="199.4648" y2="199.4648"/><line style="stroke: #A80036; stroke-width: 1.0;" x1="1370.5" x2="1370.5" y1="118.2656" y2="199.4648"/><line style="stroke: #A80036; stroke-width: 1.0;" x1="56" x2="1370.5" y1="64.1328" y2="64.1328"/><!--
--></g></svg>